<?xml version="1.0" encoding="UTF-8"?>
<svg width="117.83mm" height="94.021mm" version="1.1" viewBox="0 0 117.83 94.021" xmlns="http://www.w3.org/2000/svg" xmlns:cc="http://creativecommons.org/ns#" xmlns:dc="http://purl.org/dc/elements/1.1/" xmlns:rdf="http://www.w3.org/1999/02/22-rdf-syntax-ns#" xmlns:xlink="http://www.w3.org/1999/xlink">
 <title>Elgato Stream Deck Mini Layout</title>
 <defs>
  <radialGradient id="b" cx="40" cy="90" r="10.5" gradientTransform="translate(108.17 -51.958)" gradientUnits="userSpaceOnUse">
   <stop stop-color="#fff" offset="0"/>
   <stop stop-color="#8560ff" offset="1"/>
  </radialGradient>
 </defs>
 <metadata>
  <rdf:RDF>
   <cc:Work rdf:about="">
    <dc:format>image/svg+xml</dc:format>
    <dc:type rdf:resource="http://purl.org/dc/dcmitype/StillImage"/>
    <dc:title>Elgato Stream Deck Mini Layout</dc:title>
    <dc:creator>
     <cc:Agent>
      <dc:title>Tim Lundqvist</dc:title>
     </cc:Agent>
    </dc:creator>
    <dc:date>2018-10-27</dc:date>
    <cc:license rdf:resource="http://creativecommons.org/licenses/by-sa/4.0/"/>
   </cc:Work>
   <cc:License rdf:about="http://creativecommons.org/licenses/by-sa/4.0/">
    <cc:permits rdf:resource="http://creativecommons.org/ns#Reproduction"/>
    <cc:permits rdf:resource="http://creativecommons.org/ns#Distribution"/>
    <cc:requires rdf:resource="http://creativecommons.org/ns#Notice"/>
    <cc:requires rdf:resource="http://creativecommons.org/ns#Attribution"/>
    <cc:permits rdf:resource="http://creativecommons.org/ns#DerivativeWorks"/>
    <cc:requires rdf:resource="http://creativecommons.org/ns#ShareAlike"/>
   </cc:License>
  </rdf:RDF>
 </metadata>
 <g transform="translate(.70834 -34.687)">
  <rect x="5.2917" y="40.687" width="105.83" height="82.021" fill="#1a1a1a" stroke-width=".28063"/>
  <g transform="translate(-53.217 -132.54)" color="#ffffff">
   <g fill="none" stroke="currentColor" stroke-linecap="square" stroke-linejoin="bevel">
    <path d="m93.695 185.18a4 4 0 0 1-4.4534 2.5712 4 4 0 0 1-3.3054-3.9392 4 4 0 0 1 3.3054-3.9392 4 4 0 0 1 4.4534 2.5712"/>
    <path d="m93.695 185.18-5.1117-3.5563-0.03339 4.3764 2.255-1.2194"/>
   </g>
   <g transform="matrix(.26458 0 0 .26458 -3.2072 3.7364)" fill="currentColor" aria-label="STREAM DECK">
    <path d="m388.15 685.81q0 2.5333-1.84 3.9467-1.84 1.4133-4.96 1.4133-1.6 0-2.96-0.24t-2.2667-0.66667v-2.2933q0.96 0.42666 2.3733 0.77333 1.44 0.34667 2.96 0.34667 2.1067 0 3.2-0.82667t1.0933-2.24q0-0.93333-0.4-1.5733t-1.3867-1.1733q-0.98667-0.53333-2.6933-1.1733-2.4533-0.88-3.68-2.16-1.2267-1.28-1.2267-3.4933 0-1.4933 0.77333-2.5867 0.77333-1.0933 2.1333-1.68 1.36-0.58667 3.1733-0.58667 1.5467 0 2.8533 0.29333 1.3067 0.29334 2.4 0.77334l-0.74667 2.0533q-0.98666-0.42667-2.16-0.72-1.1733-0.29333-2.4-0.29333-1.7867 0-2.6933 0.77333-0.90667 0.74667-0.90667 2 0 0.96 0.4 1.6t1.3067 1.1733q0.90667 0.50666 2.4533 1.0667 1.68 0.61334 2.8267 1.3333 1.1733 0.69333 1.76 1.68 0.61333 0.98666 0.61333 2.48z"/>
    <path d="m396.01 690.9h-2.4v-16.933h-5.9467v-2.1067h14.267v2.1067h-5.92z"/>
    <path d="m408.08 671.86q3.5467 0 5.2267 1.36 1.7067 1.3333 1.7067 4.0533 0 1.52-0.56 2.5333-0.56 1.0133-1.44 1.6267-0.85334 0.61334-1.8133 0.93334l5.2267 8.5333h-2.8l-4.6133-7.8667h-3.7867v7.8667h-2.4v-19.04zm-0.13333 2.08h-2.72v7.0667h2.8533q2.32 0 3.3867-0.90667 1.0667-0.93333 1.0667-2.72 0-1.8667-1.12-2.64-1.12-0.8-3.4667-0.8z"/>
    <path d="m428.03 690.9h-10.64v-19.04h10.64v2.1067h-8.24v5.9467h7.76v2.08h-7.76v6.8h8.24z"/>
    <path d="m442.18 690.9-2.2933-5.8933h-7.5467l-2.2667 5.8933h-2.4267l7.44-19.12h2.16l7.4133 19.12zm-3.0133-8.0267-2.1333-5.76q-0.08-0.21333-0.26667-0.77333-0.18666-0.56-0.37333-1.1467-0.16-0.61333-0.26667-0.93333-0.21333 0.82666-0.45333 1.6267-0.21333 0.77334-0.37333 1.2267l-2.16 5.76z"/>
    <path d="m453.67 690.9-6.2667-16.693h-0.10667q0.08 0.82667 0.13333 2.24 0.0533 1.3867 0.0533 2.9067v11.547h-2.2133v-19.04h3.5467l5.8667 15.6h0.10666l5.9733-15.6h3.52v19.04h-2.3733v-11.707q0-1.3867 0.0533-2.7467 0.08-1.36 0.13333-2.2133h-0.10667l-6.3467 16.667z"/>
    <path d="m487.62 681.19q0 4.8267-2.64 7.28-2.6133 2.4267-7.3067 2.4267h-5.3067v-19.04h5.8667q2.8533 0 4.96 1.0667 2.1333 1.0667 3.28 3.1467t1.1467 5.12zm-2.5333 0.08q0-3.8133-1.8933-5.5733-1.8667-1.7867-5.3067-1.7867h-3.12v14.933h2.5867q7.7333 0 7.7333-7.5733z"/>
    <path d="m500.48 690.9h-10.64v-19.04h10.64v2.1067h-8.24v5.9467h7.76v2.08h-7.76v6.8h8.24z"/>
    <path d="m510.85 673.7q-3.0667 0-4.8267 2.0533-1.76 2.0533-1.76 5.6267 0 3.5467 1.6267 5.6267 1.6533 2.0533 4.9333 2.0533 1.2267 0 2.3467-0.21333 1.12-0.21334 2.2133-0.53334v2.08q-1.0667 0.4-2.2133 0.58667-1.12 0.18667-2.6933 0.18667-2.9067 0-4.8533-1.2t-2.9333-3.4133q-0.96-2.2133-0.96-5.2 0-2.88 1.04-5.0667 1.0667-2.2133 3.12-3.44 2.0533-1.2533 4.9867-1.2533 3.0133 0 5.2533 1.12l-0.96 2.0267q-0.88-0.4-1.9733-0.72-1.0667-0.32-2.3467-0.32z"/>
    <path d="m531.48 690.9h-2.8267l-6.7467-9.0933-1.9467 1.7067v7.3867h-2.4v-19.04h2.4v9.3867q0.8-0.90667 1.6267-1.8133 0.82667-0.90666 1.6533-1.8133l5.1467-5.76h2.8l-7.5467 8.2933z"/>
   </g>
  </g>
  <g transform="translate(-63.583 31.75)">
   <rect id="a" x="138.17" y="28.042" width="20" height="20" fill="url(#b)" stroke="#8080ff" stroke-linecap="round" stroke-linejoin="round"/>
   <g transform="scale(.26458)" aria-label="Button 0, first column from right, first row from top.">
    <path d="m575.16 142.38q0 7.424-1.536 12.672t-4.928 8.064q-3.328 2.816-8.768 2.816-7.744 0-11.456-6.208-3.648-6.272-3.648-17.344 0-7.424 1.472-12.672 1.536-5.248 4.864-8 3.328-2.816 8.768-2.816 7.68 0 11.456 6.208 3.776 6.144 3.776 17.28zm-24.704 0q0 9.408 2.112 14.08 2.176 4.672 7.36 4.672 5.12 0 7.296-4.608 2.24-4.672 2.24-14.144 0-9.344-2.24-14.016-2.176-4.672-7.296-4.672-5.184 0-7.36 4.672-2.112 4.672-2.112 14.016z"/>
   </g>
  </g>
  <g transform="translate(-63.583 31.75)">
   <use transform="translate(-26.458)" width="100%" height="100%" xlink:href="#a"/>
   <g transform="scale(.26458)" aria-label="Button 1, second column from right, first row from top.">
    <path d="m464.41 165.29h-5.504v-31.936q0-2.752 0.064-4.416t0.192-3.456q-1.024 1.024-1.92 1.728-0.832 0.704-2.048 1.792l-4.864 3.968-2.944-3.776 12.352-9.6h4.672z"/>
   </g>
  </g>
  <g transform="translate(-63.583 31.75)">
   <use transform="translate(-52.917)" width="100%" height="100%" xlink:href="#a"/>
   <g transform="scale(.26458)" aria-label="Button 2, third column from right, first row from top.">
    <path d="m374.97 165.29h-30.208v-4.672l11.968-12.096q3.392-3.456 5.76-6.144 2.432-2.688 3.648-5.248t1.216-5.696q0-3.776-2.24-5.696-2.24-1.984-5.824-1.984-3.392 0-5.888 1.152t-5.12 3.2l-3.008-3.776q2.688-2.24 6.144-3.776 3.52-1.6 7.872-1.6 6.4 0 10.112 3.264t3.712 8.896q0 3.584-1.472 6.72t-4.096 6.208-6.144 6.464l-9.536 9.408v0.256h23.104z"/>
   </g>
  </g>
  <g transform="translate(-37.125 58.208)">
   <use transform="translate(-79.375)" width="100%" height="100%" xlink:href="#a"/>
   <g transform="scale(.26458)" aria-label="Button 3, forth column from right, first row from top.">
    <path d="m273.24 130.28q0 4.608-2.624 7.36-2.56 2.688-6.848 3.584v0.256q5.44 0.64 8.128 3.456 2.752 2.816 2.752 7.36 0 4.032-1.856 7.104t-5.76 4.8q-3.84 1.728-9.92 1.728-3.584 0-6.656-0.576-3.072-0.512-5.888-1.92v-5.248q2.88 1.472 6.208 2.24t6.4 0.768q6.144 0 8.832-2.368 2.752-2.432 2.752-6.656 0-4.288-3.392-6.144-3.328-1.92-9.408-1.92h-4.416v-4.8h4.48q5.632 0 8.512-2.368 2.944-2.368 2.944-6.272 0-3.328-2.24-5.12-2.24-1.856-6.08-1.856-3.712 0-6.336 1.088t-5.184 2.752l-2.816-3.84q2.432-1.92 6.016-3.328 3.648-1.408 8.256-1.408 7.168 0 10.624 3.2 3.52 3.2 3.52 8.128z"/>
   </g>
  </g>
  <g transform="translate(15.875 58.208)">
   <use transform="translate(-105.83)" width="100%" height="100%" xlink:href="#a"/>
   <g transform="scale(.26458)" aria-label="Button 4, fifth column from right, first row from top.">
    <path d="m177.02 154.92h-6.656v10.368h-5.44v-10.368h-21.888v-4.8l21.504-30.784h5.824v30.528h6.656zm-12.096-5.056v-14.4q0-3.328 0.064-5.632 0.128-2.368 0.256-4.48h-0.256q-0.512 1.216-1.28 2.624t-1.472 2.368l-13.696 19.52z"/>
   </g>
  </g>
  <g transform="translate(-63.5 31.75)">
   <use transform="translate(5.0529e-6 26.458)" width="100%" height="100%" xlink:href="#a"/>
   <g transform="scale(.26458)" aria-label="Button 5, first column from right, second row from top.">
    <path d="m559.29 237.26q6.976 0 11.136 3.52 4.224 3.52 4.224 9.92 0 7.104-4.544 11.2-4.48 4.032-12.544 4.032-3.584 0-6.656-0.64t-5.184-1.856v-5.312q2.304 1.408 5.568 2.24 3.328 0.768 6.336 0.768 5.056 0 8.128-2.368 3.136-2.432 3.136-7.488 0-4.48-2.752-6.848-2.752-2.432-8.704-2.432-1.792 0-4.096 0.32t-3.712 0.64l-2.816-1.792 1.728-21.568h22.912v5.12h-18.112l-1.088 13.248q1.088-0.192 2.944-0.448t4.096-0.256z"/>
   </g>
  </g>
 </g>
</svg>
